<?xml version="1.0" encoding="UTF-8"?>
<svg width="400" height="300" viewBox="0 0 400 300" xmlns="http://www.w3.org/2000/svg" role="img" aria-labelledby="title desc">
  <title id="title">Empty state — no items yet</title>
  <desc id="desc">Use this illustration when a list or inbox has no content.</desc>

  <defs>
    <linearGradient id="bgGrad" x1="0" y1="0" x2="1" y2="1">
      <stop offset="0" stop-color="#eff6ff"/>
      <stop offset="1" stop-color="#f8fafc"/>
    </linearGradient>

    <filter id="shadow" x="-20%" y="-20%" width="140%" height="140%">
      <feDropShadow dx="0" dy="8" stdDeviation="12" flood-color="#000000" flood-opacity="0.08"/>
    </filter>
  </defs>

  <!-- Subtle background blob -->
  <circle cx="200" cy="110" r="130" fill="url(#bgGrad)" />

  <!-- Card -->
  <rect x="70" y="50" width="260" height="180" rx="16" fill="#ffffff" stroke="#e5e7eb" filter="url(#shadow)"/>

  <!-- Magnifying glass (symbol of "nothing found/empty") -->
  <circle cx="200" cy="140" r="42" fill="none" stroke="#3b82f6" stroke-width="4"/>
  <line x1="231" y1="171" x2="258" y2="198" stroke="#3b82f6" stroke-width="4" stroke-linecap="round"/>

  <!-- Decorative elements -->
  <g stroke="#93c5fd" stroke-width="2" stroke-linecap="round">
    <!-- plus -->
    <line x1="110" y1="90" x2="110" y2="100"/>
    <line x1="105" y1="95" x2="115" y2="95"/>
    <!-- plus -->
    <line x1="300" y1="85" x2="300" y2="95"/>
    <line x1="295" y1="90" x2="305" y2="90"/>
    <!-- sparkles -->
    <line x1="90" y1="170" x2="95" y2="170"/>
    <line x1="305" y1="170" x2="310" y2="170"/>
    <line x1="222" y1="90" x2="227" y2="90"/>
  </g>

  <!-- Dots -->
  <g fill="#cfe3ff">
    <circle cx="140" cy="70" r="3"/>
    <circle cx="265" cy="60" r="3"/>
    <circle cx="320" cy="145" r="2.5"/>
    <circle cx="80"  cy="145" r="2.5"/>
  </g>

  <!-- Soft shadow under the card -->
  <ellipse cx="200" cy="240" rx="110" ry="14" fill="#e5e7eb" opacity="0.6"/>
</svg>
